# xmcd CD database file
#
# Track frame offsets:
#	150
#	25272
#	63377
#	91764
#	111728
#	137391
#	161552
#	185594
#	209119
#	242299
#	274397
#	296957
#
# Disc length: 4384 seconds
#
# Revision: 0
# Processed by: cddbd v1.5.1PL0 Copyright (c) Steve Scherf et al.
# Submitted via: CDex 1.51
#
DISCID=b8111e0c
DTITLE=Soul Quality Quartet - Dip
DYEAR=2003
DGENRE=Jazz
TTITLE0=I'm not here
TTITLE1=Sad Dettin
TTITLE2=Pressure
TTITLE3=Amor Ideal
TTITLE4=Aphotic Marauder
TTITLE5=Freeze/Burn
TTITLE6=Toda Tercafeira
TTITLE7=On your own
TTITLE8=Break it to me now
TTITLE9=Como Antres
TTITLE10=Harraldo
TTITLE11=Como Antes [AHB VOX]
EXTD=YEAR: 2003
EXTT0=
EXTT1=
EXTT2=
EXTT3=
EXTT4=
EXTT5=
EXTT6=
EXTT7=
EXTT8=
EXTT9=
EXTT10=
EXTT11=
PLAYORDER=
